Coordinates
version=1
nRows=4
nColumns=63
inDegrees=yes

Units are S.I. units (second, meters, Newtons, ...)
If the header above contains a line with 'inDegrees', this indicates whether rotational values are in degrees (yes) or radians (no).

endheader
time	pelvis_tilt	pelvis_list	pelvis_rotation	pelvis_tx	pelvis_ty	pelvis_tz	hip_flexion_r	hip_adduction_r	hip_rotation_r	knee_angle_r	knee_angle_r_beta	ankle_angle_r	subtalar_angle_r	mtp_angle_r	hip_flexion_l	hip_adduction_l	hip_rotation_l	knee_angle_l	knee_angle_l_beta	ankle_angle_l	subtalar_angle_l	mtp_angle_l	L5_S1_Flex_Ext	L5_S1_Lat_Bending	L5_S1_axial_rotation	L4_L5_Flex_Ext	L4_L5_Lat_Bending	L4_L5_axial_rotation	L3_L4_Flex_Ext	L3_L4_Lat_Bending	L3_L4_axial_rotation	L2_L3_Flex_Ext	L2_L3_Lat_Bending	L2_L3_axial_rotation	L1_L2_Flex_Ext	L1_L2_Lat_Bending	L1_L2_axial_rotation	L1_T12_Flex_Ext	L1_T12_Lat_Bending	L1_T12_axial_rotation	Abs_r3	Abs_r2	Abs_r1	Abs_t1	Abs_t2	neck_flexion	neck_bending	neck_rotation	arm_flex_r	arm_add_r	arm_rot_r	elbow_flex_r	pro_sup_r	wrist_flex_r	wrist_dev_r	arm_flex_l	arm_add_l	arm_rot_l	elbow_flex_l	pro_sup_l	wrist_flex_l	wrist_dev_l
      1.26666667	     -3.36459024	     -0.03482725	     -0.84333654	      0.10147355	      0.97448577	      0.35260318	      3.19063868	     -5.91377950	    -26.28596700	      3.76107009	      0.06564306	      2.17355230	     11.15842162	      0.00000000	      3.21023744	     -4.49823970	    -14.73881115	      3.24603751	      0.05665404	      5.09695126	      6.28857830	      0.00000000	      0.01495043	     -0.11182501	      0.22418644	      0.02776445	     -0.14872727	      0.23819810	      0.02456207	     -0.27189134	      0.23819810	      0.01708685	     -0.27189134	      0.19616314	      0.01388297	     -0.22803357	      0.18215149	      0.00854268	     -0.17321695	      0.16813983	      0.10678945	     -1.26498691	      1.24685774	      0.00000000	      0.00000000	      0.00000000	      0.00000000	      0.00000000	      5.41546759	    -30.88682628	    -50.04583881	     19.23117568	     60.88426645	      0.00000000	      4.99999375	     -6.57404830	    -30.55259353	    -28.82340651	     29.72274583	     67.34566438	      0.00000000	      4.99999375
      1.30000000	     -3.35611681	     -0.01272145	     -0.89886915	      0.10196917	      0.97422845	      0.35256779	      3.10169595	     -5.83407916	    -24.68747166	      3.47107629	      0.06058171	      2.06476556	      9.22757566	      0.00000000	      3.07091915	     -4.39824169	    -13.97960369	      3.09397612	      0.05400007	      5.16846207	      5.21033347	      0.00000000	      0.01548261	     -0.11783096	      0.23294063	      0.02875275	     -0.15671518	      0.24749942	      0.02543637	     -0.28649420	      0.24749942	      0.01769507	     -0.28649420	      0.20382305	      0.01437715	     -0.24028090	      0.18926426	      0.00884676	     -0.18252016	      0.17470547	      0.11059070	     -1.33292741	      1.29554590	      0.00000000	      0.00000000	      0.00000000	      0.00000000	      0.00000000	      5.72886261	    -30.79884422	    -50.31525251	     19.02013513	     59.31576076	      0.00000000	      4.99999481	     -6.76885710	    -30.50358532	    -28.88713181	     30.12848532	     65.22563290	      0.00000000	      4.99999481
      1.33333333	     -3.36532614	     -0.13264362	     -0.89154852	      0.10209135	      0.97408666	      0.35226657	      3.19073164	     -5.80032236	    -26.43192155	      3.61186124	      0.06303887	      2.43560441	     11.36174515	      0.00000000	      3.14758324	     -4.56493059	    -15.37544386	      3.32497345	      0.05803173	      5.86014972	      7.23657648	      0.00000000	      0.01412985	     -0.10279296	      0.22423607	      0.02624054	     -0.13671464	      0.23825082	      0.02321392	     -0.24993080	      0.23825082	      0.01614900	     -0.24993080	      0.19620656	      0.01312098	     -0.20961540	      0.18219180	      0.00807379	     -0.15922629	      0.16817705	      0.10092808	     -1.16281451	      1.24713374	      0.00000000	      0.00000000	      0.00000000	      0.00000000	      0.00000000	      6.44003380	    -30.71883949	    -52.21685895	     18.41164747	     59.46635779	      0.00000000	      4.99999568	     -6.75171359	    -30.52223925	    -28.68901710	     30.03318182	     65.96155038	      0.00000000	      4.99999568
      1.36666667	     -3.38069866	     -0.13967946	     -0.95285747	      0.10246036	      0.97398667	      0.35235439	      3.22826132	     -5.73736990	    -26.41598568	      3.54638853	      0.06189616	      2.58234131	     11.05948874	      0.00000000	      3.09706087	     -4.54263691	    -15.24840200	      3.30262371	      0.05764166	      6.11020502	      6.95709419	      0.00000000	      0.01314247	     -0.10393406	      0.22858256	      0.02440689	     -0.13823230	      0.24286897	      0.02159177	     -0.25270528	      0.24286897	      0.01502053	     -0.25270528	      0.20000974	      0.01220410	     -0.21194234	      0.18572333	      0.00750961	     -0.16099386	      0.17143692	      0.09387537	     -1.17572291	      1.27130764	      0.00000000	      0.00000000	      0.00000000	      0.00000000	      0.00000000	      6.58201304	    -30.55705012	    -52.24477980	     18.63908758	     59.11550556	      0.00000000	      4.99999585	     -6.94421218	    -30.54865163	    -28.74379838	     30.29970360	     65.53923552	      0.00000000	      4.99999585
